<svg width="86" height="86" viewBox="0 0 86 86" fill="none" xmlns="http://www.w3.org/2000/svg">
<circle cx="42.9999" cy="43" r="43" fill="#FAFF00"/>
<g clip-path="url(#clip0)">
<path d="M29.9303 33.6227H36.1037V32.685C36.1037 31.5128 37.0415 30.5751 38.2136 30.5751H47.7863C48.9584 30.5751 49.8962 31.5128 49.8962 32.685V33.6227H56.0695C57.6715 33.6227 58.9999 34.9511 58.9999 36.5531V52.4945C58.9999 54.0964 57.6715 55.4249 56.0695 55.4249H29.9303C28.3284 55.4249 26.9999 54.0964 26.9999 52.4945V36.5531C26.9999 34.9121 28.3284 33.6227 29.9303 33.6227Z" fill="#2D2D2D"/>
<path d="M47.4346 40.1086C46.3015 38.9755 44.7387 38.3113 43.0195 38.3113C41.3003 38.3113 39.7374 39.0146 38.6044 40.1477C37.4713 41.2808 36.768 42.8437 36.768 44.5628C36.768 46.282 37.4713 47.8449 38.6044 48.978C39.7374 50.1111 41.3003 50.8144 43.0195 50.8144C44.7387 50.8144 46.3015 50.1111 47.4346 48.978C48.5677 47.8449 49.271 46.282 49.271 44.5628C49.2319 42.8046 48.5287 41.2417 47.4346 40.1086ZM43.0195 36.6703C45.1685 36.6703 47.1611 37.5299 48.5677 38.9755C49.9743 40.3821 50.873 42.3748 50.873 44.5238C50.873 46.6727 50.0134 48.6654 48.5677 50.072C47.1611 51.4786 45.1685 52.3772 43.0195 52.3772C40.8705 52.3772 38.8779 51.5177 37.4713 50.072C36.0647 48.6654 35.166 46.6727 35.166 44.5238C35.166 42.3748 36.0256 40.3821 37.4713 38.9755C38.8779 37.5299 40.8705 36.6703 43.0195 36.6703Z" fill="#FAFF00"/>
<path d="M54.4285 39.7179C55.2917 39.7179 55.9914 39.0182 55.9914 38.155C55.9914 37.2919 55.2917 36.5922 54.4285 36.5922C53.5654 36.5922 52.8657 37.2919 52.8657 38.155C52.8657 39.0182 53.5654 39.7179 54.4285 39.7179Z" fill="#FAFF00"/>
<path d="M43.0195 48.8217C45.3932 48.8217 47.3174 46.8974 47.3174 44.5238C47.3174 42.1501 45.3932 40.2258 43.0195 40.2258C40.6458 40.2258 38.7216 42.1501 38.7216 44.5238C38.7216 46.8974 40.6458 48.8217 43.0195 48.8217Z" fill="#FAFF00"/>
</g>
<defs>
<clipPath id="clip0">
<rect x="26.9999" y="27" width="32" height="32" fill="white"/>
</clipPath>
</defs>
</svg>
