<svg width="414" height="896" viewBox="0 0 414 896" fill="none" xmlns="http://www.w3.org/2000/svg">
<path d="M436.861 540.707L423.167 609.506L370.433 563.247L436.861 540.707Z" fill="#DD00F0" fill-opacity="0.8"/>
<path d="M30.861 714.707L17.1668 783.506L-35.5673 737.247L30.861 714.707Z" fill="#DD00F0" fill-opacity="0.8"/>
<path d="M385.491 110.259L315.688 117.208L344.571 53.2826L385.491 110.259Z" fill="#DD00F0" fill-opacity="0.8"/>
<path d="M107.561 -89.7102L49.7137 171.977L-144.36 1.73364L107.561 -89.7102Z" fill="#DD00F0"/>
<path d="M301.861 861.707L288.167 930.506L235.433 884.247L301.861 861.707Z" fill="#FAFF00" fill-opacity="0.8"/>
<path fill-rule="evenodd" clip-rule="evenodd" d="M219.333 212.824C221.286 210.531 222.608 207.722 222.387 204.574C221.751 195.503 209.125 197.499 206.668 202.077C204.212 206.655 204.504 218.267 207.678 219.085C208.944 219.412 211.641 218.612 214.386 216.958L212.663 229.146H222.835L219.333 212.824Z" fill="#B28B67"/>
<path fill-rule="evenodd" clip-rule="evenodd" d="M202.162 195.73C202.373 194.99 202.939 194.356 203.703 194.168C203.888 194.122 204.079 194.104 204.27 194.111C204.338 194.114 204.357 194.134 204.389 194.086C204.413 194.051 204.413 193.964 204.423 193.922C204.453 193.793 204.491 193.665 204.538 193.541C204.698 193.116 204.966 192.74 205.29 192.423C205.895 191.83 206.713 191.421 207.563 191.347C208.028 191.307 208.49 191.383 208.93 191.534C209.158 191.612 209.378 191.71 209.593 191.818C209.658 191.85 209.868 192.009 209.933 191.999C210.005 191.987 210.149 191.809 210.207 191.764C210.929 191.211 211.819 190.993 212.717 191C213.731 191.008 214.707 191.058 215.553 191.676C215.732 191.807 215.902 191.95 216.065 192.101C216.15 192.181 216.233 192.263 216.312 192.349C216.36 192.401 216.406 192.454 216.451 192.508C216.526 192.6 216.514 192.631 216.62 192.566C217.027 192.319 217.499 192.203 217.974 192.262C218.256 192.296 218.53 192.381 218.791 192.493C218.879 192.53 219.085 192.682 219.179 192.683C219.273 192.685 219.476 192.544 219.572 192.509C220.094 192.316 220.657 192.269 221.205 192.358C221.771 192.45 222.327 192.675 222.806 192.987C223.037 193.137 223.238 193.304 223.399 193.527C223.469 193.623 223.532 193.725 223.611 193.814C223.658 193.866 223.749 193.92 223.774 193.986C223.759 193.947 224.393 193.702 224.453 193.687C224.771 193.604 225.096 193.62 225.408 193.723C225.994 193.916 226.499 194.349 226.913 194.793C227.126 195.021 227.312 195.273 227.471 195.541C227.546 195.67 227.616 195.802 227.679 195.937C227.71 196.003 227.73 196.085 227.771 196.144C227.823 196.219 227.858 196.221 227.953 196.254C228.433 196.422 228.87 196.707 229.203 197.092C229.541 197.481 229.759 197.96 229.851 198.465C229.856 198.494 229.86 198.618 229.877 198.634C229.901 198.656 229.997 198.646 230.034 198.65C230.16 198.665 230.286 198.687 230.41 198.716C230.638 198.771 230.86 198.85 231.071 198.954C231.89 199.36 232.477 200.12 232.764 200.976C233.065 201.874 233.059 202.902 232.699 203.783C232.641 203.926 232.572 204.064 232.491 204.195C232.441 204.275 232.425 204.275 232.457 204.359C232.494 204.453 232.559 204.544 232.602 204.635C232.742 204.934 232.84 205.251 232.902 205.574C233.003 206.105 233.053 206.662 232.953 207.197C232.907 207.445 232.826 207.688 232.703 207.909C232.64 208.021 232.566 208.128 232.483 208.227C232.44 208.279 232.394 208.328 232.346 208.375C232.319 208.401 232.283 208.425 232.259 208.455C232.203 208.528 232.191 208.468 232.22 208.575C232.261 208.725 232.354 208.873 232.411 209.019C232.47 209.17 232.523 209.322 232.571 209.476C232.669 209.788 232.752 210.106 232.804 210.429C232.904 211.049 232.887 211.71 232.593 212.279C232.468 212.523 232.288 212.736 232.07 212.902C231.963 212.984 231.847 213.054 231.726 213.111C231.663 213.141 231.584 213.153 231.555 213.214C231.525 213.279 231.57 213.407 231.581 213.48C231.671 214.111 231.716 214.773 231.528 215.391C231.356 215.961 230.975 216.463 230.482 216.796C229.524 217.442 228.233 217.405 227.227 216.888C226.964 216.754 226.719 216.586 226.5 216.389C225.943 217.139 224.796 217.116 223.981 216.902C222.966 216.636 222.151 215.93 221.682 215.002C221.04 215.784 219.694 215.53 219.249 214.683C219.14 214.475 219.075 214.247 219.043 214.015C219.027 213.894 219.037 213.771 219.025 213.65C219.009 213.497 218.906 213.347 218.847 213.198C218.732 212.909 218.661 212.61 218.658 212.298C218.656 212.135 218.677 211.976 218.692 211.814C218.706 211.669 218.666 211.533 218.643 211.389C218.903 211.432 219.22 211.362 219.466 211.286C219.706 211.212 219.932 211.017 220.102 210.839C220.496 210.425 220.737 209.883 220.902 209.343C221.263 208.158 221.115 206.737 219.924 206.087C219.368 205.784 217.705 205.785 217.044 205.935C216.349 206.092 215.561 207.626 215.522 207.77C215.498 207.859 215.51 207.97 215.428 208.029C215.248 208.16 214.951 207.933 214.818 207.821C214.589 207.628 214.425 207.371 214.283 207.11C213.975 206.542 213.726 205.933 213.55 205.312C213.415 204.832 213.328 204.338 213.151 203.871C212.975 203.406 212.697 202.991 212.265 202.728C211.795 202.441 211.256 202.291 210.74 202.111C210.229 201.932 209.726 201.714 209.33 201.336C209.243 201.253 209.158 201.164 209.088 201.066C209.033 200.989 208.978 200.841 208.893 200.792C208.762 200.715 208.571 200.914 208.457 200.986C207.898 201.341 207.431 201.837 207.054 202.379C206.68 202.917 206.372 203.435 206.123 204.037C205.937 204.483 205.822 205.054 205.496 205.42C205.351 205.583 204.27 205.682 203.919 205.539C203.569 205.397 203.177 205.027 203.059 204.795C202.939 204.557 202.91 204.297 202.962 204.037C202.992 203.884 203.054 203.741 203.087 203.591C203.116 203.465 203.142 203.346 203.203 203.23C203.319 203.011 203.518 202.854 203.758 202.788C203.508 202.558 203.302 202.283 203.159 201.975C203.01 201.656 202.884 201.267 202.848 200.916C202.819 200.632 202.864 200.336 203.02 200.092C203.184 199.835 203.474 199.667 203.724 199.507C203.341 199.207 203.013 198.843 202.744 198.44C202.22 197.655 201.896 196.666 202.162 195.73Z" fill="#191847"/>
<path fill-rule="evenodd" clip-rule="evenodd" d="M251.233 282.127H202.491C198.745 282.127 195.709 285.163 195.709 288.908V327.902C195.709 331.647 198.745 334.684 202.491 334.684H251.233C254.978 334.684 258.014 331.647 258.014 327.902V288.908C258.014 285.163 254.978 282.127 251.233 282.127ZM244.451 293.995C245.388 293.995 246.147 294.754 246.147 295.69V321.121C246.147 322.057 245.388 322.816 244.451 322.816H209.272C208.336 322.816 207.577 322.057 207.577 321.121V295.69C207.577 294.754 208.336 293.995 209.272 293.995H244.451Z" fill="#C5CFD6"/>
<path fill-rule="evenodd" clip-rule="evenodd" d="M165.4 333.268C170.831 321.248 174.758 310.782 176.335 305.26C179.034 295.805 181.087 287.486 181.606 284.379C182.844 276.97 172.086 276.538 170.664 280.22C168.512 285.793 164.754 304.104 160.24 331.762L165.4 333.268ZM228.392 295.547C223.41 293.578 205.961 287.414 197.545 285.671C195.127 285.17 192.783 284.704 190.58 284.283C184.03 283.033 180.636 294.85 186.944 295.757C202.655 298.019 224.928 300.354 226.834 300.616C229.505 300.983 231.524 296.785 228.392 295.547Z" fill="#B28B67"/>
<path fill-rule="evenodd" clip-rule="evenodd" d="M186.559 281.032L213.511 267.312V264.325H210.305C184.231 270.969 170.908 275.227 170.334 277.099C170.328 277.119 170.322 277.139 170.317 277.16C170.304 277.177 170.291 277.194 170.278 277.212C165.111 284.318 162.016 319.013 161.001 321.611L170.902 323.088C174.69 309.042 186.808 299.258 186.486 282.436C186.573 281.942 186.595 281.474 186.559 281.032Z" fill="#1F28CF"/>
<path fill-rule="evenodd" clip-rule="evenodd" d="M211.271 289.18C213.737 288.686 216.008 288.246 217.951 287.905C230.503 285.703 234.163 278.984 231.999 264.325L208.873 264.325C205.095 265.41 185.463 273.643 175.277 278.022C168.535 280.921 170.66 291.369 174.478 294.087C174.499 294.254 174.568 294.368 174.69 294.418C195.227 302.93 211.474 298.464 216.901 299.891L219.412 291.972L211.271 289.18Z" fill="#2B44FF"/>
<path fill-rule="evenodd" clip-rule="evenodd" d="M226.689 294.289C228.034 294.417 228.99 294.619 229.554 294.895C230.241 295.23 231.188 295.833 232.394 296.705C232.006 297.502 228.513 304.664 221.915 318.191C219.797 317.849 218.957 317.041 219.397 315.766C219.836 314.491 220.191 313.427 220.46 312.574L220.879 300.416C220.887 300.182 221.083 299.999 221.317 300.007C221.321 300.007 221.325 300.007 221.329 300.007L223.2 300.125C224.262 299.265 224.963 298.486 225.303 297.79C225.579 297.224 225.732 296.332 225.761 295.112L225.761 295.112C225.772 294.644 226.16 294.274 226.628 294.285C226.649 294.285 226.669 294.287 226.689 294.289Z" fill="#E4E4E4"/>
<path fill-rule="evenodd" clip-rule="evenodd" d="M167.872 331.039C168.346 332.305 168.583 333.252 168.583 333.881C168.583 334.645 168.456 335.76 168.201 337.227C167.314 337.227 159.346 337.227 144.295 337.227C143.674 335.173 144.033 334.064 145.371 333.9C146.71 333.737 147.821 333.589 148.707 333.457L159.818 328.504C160.032 328.408 160.282 328.504 160.378 328.718C160.379 328.722 160.381 328.725 160.382 328.729L161.096 330.462C162.336 331.04 163.342 331.329 164.117 331.329C164.746 331.329 165.616 331.075 166.725 330.566L166.725 330.566C167.15 330.371 167.653 330.558 167.848 330.984C167.857 331.002 167.865 331.02 167.872 331.039Z" fill="#E4E4E4"/>
<path fill-rule="evenodd" clip-rule="evenodd" d="M188.909 257.596L176.902 269.309C173.409 270.799 170.546 272.444 168.315 274.245C167.813 274.85 167.267 276.01 169.628 275.491C171.989 274.972 174.495 274.532 174.939 275.3C175.383 276.068 174.075 277.245 174.895 278.249C175.442 278.919 177.281 276.788 180.411 271.857L192.897 264.496L188.909 257.596ZM242.202 259.248L233.344 259.282C238.813 276.937 241.766 286.305 242.202 287.385C243.182 289.815 241.107 293.517 240.219 295.506C243.11 296.8 242.802 292.01 246.449 293.706C249.777 295.255 252.309 298.06 256.154 295.688C256.627 295.396 257.145 294.297 255.893 293.439C252.775 291.301 248.281 287.558 247.673 286.326C246.845 284.647 245.021 275.62 242.202 259.248Z" fill="#B28B67"/>
<path fill-rule="evenodd" clip-rule="evenodd" d="M217.031 222.081L213.366 221.453C207.056 237.216 196.039 251.538 180.316 264.421L192.197 278.855C207.918 260.513 217.609 241.588 217.031 222.081Z" fill="#191847"/>
<path fill-rule="evenodd" clip-rule="evenodd" d="M233.007 268.14H200.371C207.932 249.756 211.713 234.138 211.713 221.288L221.558 219.822C229.295 232.265 231.48 247.585 233.007 268.14Z" fill="#DDE3E9"/>
<path fill-rule="evenodd" clip-rule="evenodd" d="M221.766 219.828C221.765 219.826 221.763 219.824 221.762 219.822H221.12C220.351 219.848 219.179 219.896 217.606 219.965L215.227 226.763C214.975 235.051 213.506 251.755 210.819 276.874H232.212C232.156 278.609 232.064 280.36 231.935 282.127H247.842C245.463 255.282 236.773 234.514 221.774 219.822L221.766 219.828V219.828Z" fill="#2F3676"/>
<path fill-rule="evenodd" clip-rule="evenodd" d="M230.799 254.676C230.19 265.49 228.666 272.945 226.226 277.041H232.207C232.469 269.26 231.999 261.805 230.799 254.676V254.676Z" fill="black" fill-opacity="0.1"/>
<path fill-rule="evenodd" clip-rule="evenodd" d="M227.45 263.901L216.901 258.997V263.901H227.45Z" fill="white" fill-opacity="0.2"/>
</svg>
